<?xml version="1.0" standalone="no"?>
<!DOCTYPE svg PUBLIC "-//W3C//DTD SVG 20010904//EN"
 "http://www.w3.org/TR/2001/REC-SVG-20010904/DTD/svg10.dtd">
<svg version="1.0" xmlns="http://www.w3.org/2000/svg"
 width="1800.000000pt" height="1170.000000pt" viewBox="0 0 1800.000000 1170.000000"
 preserveAspectRatio="xMidYMid meet">
<g transform="translate(0.000000,1170.000000) scale(0.100000,-0.100000)"
fill="#000000" stroke="none">
<path d="M8658 11144 c-4 -3 -78 -12 -165 -20 -241 -21 -425 -47 -518 -74 -16
-5 -50 -11 -75 -15 -25 -4 -88 -18 -140 -32 -52 -13 -111 -28 -130 -33 -57
-13 -143 -37 -170 -48 -14 -5 -52 -18 -85 -27 -62 -18 -118 -38 -172 -61 -17
-8 -36 -14 -42 -14 -6 0 -27 -7 -48 -16 -67 -29 -97 -42 -153 -65 -238 -95
-619 -300 -825 -444 -33 -23 -65 -44 -71 -46 -6 -2 -75 -51 -154 -109 -604
-443 -1138 -1052 -1483 -1692 -67 -123 -187 -362 -187 -371 0 -5 -11 -32 -24
-60 -13 -29 -31 -72 -41 -97 -9 -25 -23 -58 -30 -75 -22 -52 -42 -108 -64
-175 -11 -36 -27 -85 -35 -110 -33 -103 -82 -276 -103 -365 -7 -33 -20 -89
-29 -125 -17 -74 -19 -86 -39 -230 -21 -151 -23 -166 -56 -515 l-11 -110 5
-265 c5 -273 17 -454 36 -563 16 -93 31 -194 41 -272 9 -67 22 -131 54 -260 9
-33 22 -87 30 -120 8 -33 19 -73 24 -90 6 -16 18 -57 28 -90 9 -33 22 -76 29
-95 7 -19 23 -66 35 -105 44 -144 111 -304 230 -555 17 -37 120 -229 139 -260
11 -19 24 -42 28 -50 17 -36 129 -218 155 -251 15 -20 28 -40 28 -43 0 -12
223 -310 317 -425 168 -204 456 -492 664 -662 24 -20 71 -59 104 -86 111 -90
342 -257 449 -323 143 -88 277 -166 350 -205 49 -26 96 -51 105 -55 37 -20
193 -91 286 -129 55 -23 124 -53 153 -67 29 -13 59 -24 67 -24 8 0 29 -6 47
-14 48 -20 106 -41 163 -59 170 -52 271 -81 430 -122 63 -17 152 -34 230 -44
33 -4 76 -13 95 -19 39 -12 170 -29 335 -43 61 -5 157 -13 215 -19 135 -12
485 -12 620 1 58 5 157 13 220 18 186 15 322 32 363 47 20 8 52 14 70 14 17 0
64 7 102 15 116 25 328 76 355 85 14 5 79 25 145 45 66 20 129 40 140 45 11 5
49 19 85 30 60 20 174 64 245 96 17 7 55 24 85 37 209 93 332 155 495 250 38
22 79 46 90 52 40 22 244 155 266 173 8 7 43 33 79 59 102 73 222 164 260 197
20 17 58 49 85 71 232 191 578 554 750 789 28 37 64 85 81 105 32 38 222 324
267 401 86 148 187 340 216 410 6 14 15 32 21 40 13 21 58 125 82 190 11 30
29 75 40 99 35 79 100 264 133 381 7 25 20 72 30 105 57 200 77 288 100 435 9
58 21 125 27 150 28 113 76 745 63 835 -3 22 -9 133 -15 246 -11 250 -23 358
-66 579 -8 41 -19 102 -24 135 -10 63 -20 110 -69 295 -44 165 -55 204 -91
305 -17 50 -38 108 -45 130 -7 22 -24 65 -37 95 -14 30 -33 75 -42 100 -10 25
-24 57 -32 72 -8 14 -14 31 -14 37 0 15 -118 255 -176 356 -24 44 -52 94 -60
110 -40 81 -239 387 -324 498 -189 247 -311 388 -505 583 -119 120 -363 342
-420 382 -15 10 -97 75 -115 90 -67 57 -326 234 -455 311 -38 23 -77 45 -85
50 -97 60 -407 221 -423 221 -4 0 -50 20 -103 45 -52 25 -99 45 -103 45 -7 0
-29 9 -126 50 -11 4 -45 16 -75 26 -30 10 -64 24 -75 31 -11 7 -31 13 -45 13
-14 0 -38 7 -54 15 -15 8 -38 15 -50 15 -12 0 -30 6 -41 13 -11 7 -54 21 -95
30 -41 10 -97 24 -125 32 -63 18 -157 39 -260 60 -44 9 -97 21 -117 26 -48 12
-230 36 -428 56 l-155 15 -340 5 c-188 2 -344 1 -347 -3z m903 -197 c80 -8
150 -17 156 -20 5 -3 43 -11 84 -17 118 -17 228 -37 304 -55 39 -9 95 -23 125
-30 57 -14 117 -30 235 -65 39 -12 84 -25 100 -29 17 -4 39 -13 50 -19 11 -5
50 -19 86 -31 36 -11 92 -31 124 -45 31 -14 61 -26 66 -26 5 0 38 -13 72 -30
35 -16 67 -30 71 -30 7 0 376 -182 411 -203 11 -7 39 -24 63 -39 24 -16 45
-28 47 -28 43 0 464 -299 720 -510 126 -104 475 -457 583 -589 207 -252 452
-605 515 -741 4 -8 23 -42 42 -75 103 -179 270 -556 330 -745 10 -30 23 -71
30 -90 7 -19 20 -62 29 -95 10 -33 24 -82 31 -110 197 -696 233 -1612 89
-2245 -51 -223 -73 -316 -90 -375 -8 -27 -22 -75 -31 -105 -9 -30 -21 -71 -28
-90 -7 -19 -20 -60 -29 -90 -24 -75 -100 -269 -152 -385 -7 -16 -25 -57 -39
-90 -30 -67 -62 -131 -95 -191 -13 -21 -38 -68 -58 -104 -19 -36 -58 -102 -86
-148 -28 -45 -55 -90 -61 -100 -5 -9 -21 -33 -35 -52 -14 -19 -29 -42 -35 -52
-47 -80 -232 -325 -338 -448 -117 -136 -176 -200 -287 -310 -111 -111 -172
-168 -313 -290 -109 -95 -441 -336 -584 -425 -92 -57 -138 -85 -153 -92 -8 -4
-47 -25 -85 -47 -92 -53 -383 -196 -400 -196 -3 0 -33 -13 -68 -29 -68 -31
-102 -45 -222 -89 -117 -43 -147 -53 -180 -62 -16 -5 -43 -13 -60 -18 -16 -6
-57 -18 -90 -27 -33 -10 -80 -23 -105 -30 -25 -8 -79 -21 -120 -30 -41 -8 -97
-22 -125 -30 -27 -7 -95 -21 -150 -30 -55 -9 -127 -21 -160 -27 -33 -5 -100
-14 -150 -19 -49 -5 -128 -14 -175 -19 -110 -11 -739 -11 -850 0 -211 23 -261
29 -311 38 -30 6 -99 18 -154 27 -55 9 -120 22 -145 30 -25 7 -83 20 -130 29
-76 15 -149 34 -220 56 -14 5 -59 18 -100 30 -41 12 -86 27 -100 32 -14 5 -56
20 -95 33 -67 22 -91 31 -162 61 -17 8 -36 14 -41 14 -5 0 -37 13 -70 30 -34
17 -64 30 -68 30 -11 0 -318 147 -354 170 -33 21 -222 130 -225 130 -3 0 -59
36 -185 119 -774 510 -1427 1286 -1814 2156 -15 33 -34 74 -41 90 -29 60 -151
407 -166 470 -5 22 -18 72 -29 110 -19 65 -39 146 -76 316 -8 37 -14 78 -14
91 0 14 -4 38 -10 54 -19 58 -49 354 -60 587 l-11 237 10 238 c13 287 45 557
91 765 6 29 18 84 26 122 39 182 160 561 239 745 57 136 179 386 240 495 18
33 37 67 41 75 239 466 899 1208 1354 1522 14 10 72 52 130 93 58 41 114 80
125 85 11 6 32 18 46 28 35 22 253 154 302 181 58 33 203 105 282 141 39 17
88 40 110 50 22 10 56 25 75 33 19 8 49 20 65 27 17 7 41 16 55 21 14 4 70 24
125 44 93 33 148 51 285 91 30 9 67 21 81 26 15 5 55 16 90 24 222 51 310 68
429 84 41 6 89 15 105 20 17 4 104 14 195 20 91 6 174 13 185 15 11 2 182 2
380 0 l360 -4 146 -14z"/>
<path d="M8595 10874 c-5 -2 -71 -11 -145 -19 -194 -21 -355 -49 -560 -95 -52
-11 -108 -23 -125 -26 -16 -3 -48 -12 -70 -19 -22 -8 -67 -21 -100 -31 -95
-26 -270 -86 -395 -134 -30 -12 -66 -25 -80 -30 -14 -4 -49 -20 -77 -34 -29
-14 -56 -26 -60 -26 -23 0 -416 -206 -533 -280 -25 -15 -150 -94 -175 -110
-85 -54 -303 -213 -385 -281 -264 -220 -471 -421 -672 -654 -123 -143 -389
-516 -464 -650 -6 -11 -40 -72 -75 -135 -86 -152 -196 -382 -234 -485 -10 -27
-22 -55 -26 -60 -8 -11 -52 -136 -90 -255 -12 -36 -28 -80 -35 -98 -8 -18 -14
-40 -14 -48 0 -9 -7 -37 -15 -63 -8 -25 -22 -73 -30 -106 -9 -33 -22 -82 -30
-110 -7 -27 -21 -90 -30 -140 -8 -49 -20 -110 -25 -135 -21 -94 -35 -217 -60
-495 l-12 -130 5 -265 c4 -260 17 -456 37 -575 5 -33 14 -91 21 -130 36 -228
91 -481 128 -585 5 -14 16 -50 25 -80 26 -87 54 -171 76 -230 12 -30 25 -66
30 -80 50 -154 241 -536 382 -767 273 -447 699 -936 1078 -1237 150 -119 292
-223 410 -300 74 -48 147 -97 162 -107 15 -10 29 -19 32 -19 3 0 88 -48 176
-99 23 -14 217 -109 290 -143 112 -51 182 -81 240 -103 25 -9 59 -23 75 -30
75 -32 224 -81 360 -120 33 -9 78 -22 100 -30 22 -7 74 -21 115 -30 41 -9 95
-21 120 -27 166 -38 186 -42 410 -68 52 -6 120 -16 150 -23 l55 -12 440 0 440
0 55 12 c30 6 102 17 160 23 185 21 233 28 330 50 52 11 115 25 140 31 103 22
157 36 183 47 16 7 34 12 40 12 14 0 281 83 342 107 22 8 57 21 78 29 76 28
124 48 185 76 34 15 65 28 68 28 9 0 325 157 389 194 33 19 78 44 99 56 139
76 489 321 650 454 470 390 889 897 1192 1441 43 77 174 347 174 358 0 4 14
37 31 74 54 120 59 133 59 153 0 10 4 21 9 24 27 17 174 538 200 706 4 25 10
50 13 55 6 10 30 154 58 345 44 309 44 894 0 1150 -5 30 -15 91 -21 135 -19
144 -25 179 -37 220 -6 22 -18 78 -27 125 -24 131 -105 422 -150 540 -8 19
-28 73 -45 120 -33 90 -54 138 -76 182 -8 14 -14 31 -14 38 0 23 -190 395
-271 530 -247 412 -655 900 -979 1173 -169 142 -298 245 -379 301 -31 22 -78
56 -106 76 -42 31 -83 57 -185 121 -8 5 -62 36 -120 69 -58 33 -112 65 -120
70 -92 54 -399 197 -530 246 -36 13 -74 28 -85 34 -31 14 -256 91 -295 101
-19 4 -60 15 -90 25 -67 20 -151 41 -245 60 -38 8 -83 19 -100 24 -67 20 -245
50 -470 77 l-130 16 -405 3 c-223 2 -409 1 -415 -2z m750 -109 c132 -8 265
-20 295 -25 30 -6 84 -14 120 -19 36 -5 99 -17 140 -25 41 -9 100 -20 130 -26
30 -6 89 -19 130 -30 41 -12 95 -25 119 -30 46 -10 89 -23 151 -45 19 -7 62
-21 95 -31 67 -20 303 -108 332 -122 10 -6 59 -27 108 -48 129 -54 446 -217
485 -249 8 -6 22 -15 30 -19 20 -9 44 -24 115 -71 33 -22 65 -42 71 -45 24
-11 326 -234 415 -307 225 -184 493 -455 681 -688 127 -158 313 -417 341 -475
9 -17 21 -37 58 -95 14 -22 29 -47 32 -55 4 -8 23 -42 42 -75 76 -131 264
-539 285 -620 5 -16 18 -55 30 -85 12 -30 28 -79 35 -107 8 -29 23 -78 33
-110 55 -170 102 -369 127 -538 9 -60 21 -128 27 -150 12 -47 24 -182 39 -472
l11 -212 -11 -193 c-15 -262 -28 -407 -40 -438 -5 -14 -12 -51 -15 -83 -4 -32
-10 -77 -16 -100 -5 -23 -16 -78 -25 -122 -9 -44 -22 -105 -30 -135 -7 -30
-24 -95 -36 -145 -12 -49 -26 -94 -31 -99 -4 -6 -8 -21 -8 -34 0 -13 -5 -33
-12 -45 -6 -12 -15 -38 -19 -57 -7 -33 -29 -100 -48 -145 -4 -11 -23 -58 -41
-105 -18 -47 -43 -109 -56 -138 -13 -29 -35 -78 -48 -110 -30 -69 -134 -274
-168 -328 -13 -21 -27 -46 -31 -54 -4 -8 -11 -22 -17 -30 -5 -8 -34 -53 -63
-100 -96 -156 -234 -349 -346 -485 -237 -288 -545 -587 -826 -801 -82 -63
-439 -304 -450 -304 -2 0 -48 -27 -103 -60 -87 -51 -188 -102 -407 -205 -62
-30 -191 -84 -225 -95 -14 -5 -50 -18 -80 -30 -99 -38 -300 -101 -430 -134
-36 -10 -78 -21 -95 -26 -16 -5 -64 -16 -105 -25 -228 -48 -374 -70 -550 -85
-63 -5 -160 -15 -215 -21 l-100 -12 -260 12 c-367 16 -596 37 -765 71 -169 33
-252 52 -340 76 -30 8 -76 19 -103 24 -26 5 -80 20 -120 33 -39 13 -101 34
-137 45 -36 12 -90 31 -120 42 -30 12 -66 25 -80 30 -21 7 -118 46 -195 80
-11 4 -76 35 -145 68 -69 33 -132 63 -140 66 -8 3 -22 10 -30 16 -8 5 -89 53
-179 107 -90 54 -171 103 -180 108 -448 284 -902 704 -1238 1145 -74 97 -263
375 -263 386 0 3 -11 20 -24 37 -47 63 -276 509 -276 537 0 9 -4 20 -9 26 -5
5 -26 52 -46 104 -20 52 -41 106 -46 120 -6 13 -19 51 -30 85 -11 33 -24 68
-29 77 -6 10 -14 34 -19 55 -6 21 -18 63 -27 93 -26 87 -44 158 -65 255 -44
197 -52 246 -79 460 -6 50 -16 110 -22 135 l-12 45 -2 410 -3 410 10 45 c5 25
16 92 24 150 8 58 17 121 20 140 27 175 39 242 51 284 8 26 14 59 14 71 0 12
7 47 16 76 8 30 21 77 29 104 8 28 21 73 29 100 8 28 16 59 19 70 3 11 22 65
42 120 20 55 41 114 46 132 5 18 14 35 19 38 6 4 10 13 10 21 0 9 11 40 25 70
14 30 37 82 51 117 34 82 165 342 198 395 14 23 26 46 26 51 0 5 6 16 14 24 8
7 23 30 33 49 16 30 147 226 219 328 158 223 514 615 704 775 19 16 67 56 105
89 59 50 299 232 361 274 96 64 305 197 324 206 8 3 51 27 95 51 188 105 469
234 630 290 28 10 64 23 80 30 17 6 57 20 90 30 33 10 76 23 95 30 35 13 85
27 210 59 36 10 80 22 98 28 19 5 57 14 85 18 29 5 88 16 132 25 44 9 109 21
145 26 36 5 93 14 128 19 60 10 258 26 402 33 171 8 356 6 575 -8z"/>
<path d="M9030 10555 l-12 -15 7 -99 7 -99 -11 -6 c-6 -4 -67 -10 -136 -13
l-124 -5 -7 27 c-4 15 -4 65 -1 110 l6 82 -12 12 c-12 12 -87 15 -124 5 l-22
-6 1 -287 c1 -157 5 -296 9 -308 l9 -23 54 0 54 0 22 18 22 18 -9 99 c-6 55
-8 105 -6 111 l4 11 122 5 c67 3 127 3 134 1 l12 -5 3 -116 3 -117 75 0 75 0
-3 285 c-1 157 -5 295 -8 308 l-4 22 -64 0 -64 0 -12 -15z"/>
<path d="M8298 10520 c-26 -5 -53 -12 -60 -16 -7 -5 -42 -12 -78 -16 -36 -4
-107 -13 -159 -20 l-94 -13 -8 -20 c-12 -32 5 -111 26 -119 8 -3 67 8 131 24
118 30 184 38 184 21 0 -8 -49 -88 -99 -161 -10 -14 -20 -32 -24 -40 -4 -8
-15 -27 -25 -42 -9 -14 -38 -62 -64 -105 l-48 -80 0 -26 c0 -14 4 -37 10 -51
l10 -26 30 0 c17 0 56 6 88 14 75 19 195 43 252 51 25 3 73 10 108 16 l62 11
0 23 c0 44 -13 86 -29 94 l-16 8 -50 -8 c-27 -4 -96 -18 -153 -30 -119 -26
-124 -24 -86 33 16 24 39 63 52 87 13 24 40 69 60 100 41 63 73 118 103 176
l21 41 -11 42 -12 42 -37 -1 c-20 -1 -58 -5 -84 -9z"/>
<path d="M9564 10521 c-92 -24 -173 -91 -219 -181 l-25 -49 0 -86 0 -86 25
-49 c38 -74 77 -113 152 -150 l68 -34 100 1 100 0 46 22 c92 42 161 135 177
236 l9 54 -10 63 -9 63 -34 51 c-43 65 -56 76 -133 114 l-64 32 -76 4 c-42 2
-90 0 -107 -5z m172 -145 l51 -24 24 -38 24 -39 -1 -70 -1 -70 -23 -38 -22
-38 -42 -21 -41 -22 -50 0 -50 0 -43 22 -42 22 -25 40 -25 40 0 55 0 56 20 37
c55 104 143 136 246 88z"/>
<path d="M10206 10389 c-9 -13 -16 -29 -16 -36 0 -7 -6 -27 -14 -45 -7 -18
-21 -60 -31 -93 -9 -33 -22 -71 -27 -85 -53 -132 -48 -230 15 -311 l32 -41 65
-36 65 -35 90 -1 90 -1 50 32 c28 18 60 48 73 66 34 50 155 389 150 420 l-3
19 -55 18 c-85 29 -80 33 -126 -110 -13 -41 -29 -83 -34 -92 -6 -10 -10 -24
-10 -32 0 -67 -76 -179 -129 -191 l-30 -6 -45 20 -45 20 -21 33 c-31 51 -15
124 86 385 13 34 24 66 24 71 0 9 -61 35 -111 47 l-27 7 -16 -23z"/>
<path d="M7360 10277 l-45 -22 -3 -17 c-2 -10 8 -42 21 -70 62 -132 89 -191
97 -214 l10 -25 -16 -6 c-9 -3 -24 -1 -33 5 -9 6 -38 23 -66 37 -27 14 -77 41
-110 59 -33 19 -91 51 -128 71 l-68 36 -52 -19 -52 -20 -3 -16 c-2 -9 13 -50
32 -91 20 -42 36 -78 36 -81 0 -2 14 -35 31 -72 45 -97 109 -250 123 -295 3
-9 12 -20 21 -23 20 -8 122 34 129 53 l6 15 -39 81 c-95 200 -105 227 -83 227
9 0 175 -86 359 -187 l41 -22 43 16 c81 31 82 35 38 131 -61 133 -74 164 -124
287 -21 50 -41 99 -46 110 -5 11 -13 32 -19 48 l-10 27 -22 0 c-13 -1 -43 -11
-68 -23z"/>
<path d="M11194 10012 c-8 -5 -100 -150 -159 -250 -25 -42 -111 -170 -138
-205 l-29 -37 6 -24 c3 -13 14 -27 23 -30 10 -4 33 -15 52 -26 44 -24 36 -32
131 125 l82 135 11 -7 10 -6 -6 -154 -5 -155 19 -19 c30 -30 53 -24 173 45 61
35 121 67 134 70 l22 7 0 -13 c0 -7 -19 -42 -42 -77 -24 -34 -47 -70 -53 -79
-5 -10 -22 -33 -37 -53 -15 -19 -30 -47 -33 -61 l-7 -27 49 -30 c26 -17 53
-31 60 -31 11 0 53 61 96 139 10 19 31 52 45 75 36 55 50 78 58 95 4 8 36 57
71 110 75 113 75 109 19 149 -60 44 -40 49 -236 -61 -19 -11 -64 -35 -100 -55
-36 -19 -69 -38 -74 -43 -6 -5 -17 -9 -25 -9 l-14 0 7 224 7 224 -42 31 c-44
32 -57 36 -75 23z"/>
<path d="M6648 9938 l-48 -31 0 -16 c0 -18 31 -69 131 -218 37 -54 72 -115 78
-135 l12 -37 -19 -44 -20 -44 -46 -23 -47 -22 -32 6 -33 6 -31 33 c-26 27 -51
62 -98 139 -5 9 -34 55 -63 102 l-53 86 -20 0 c-10 0 -37 -13 -60 -29 -22 -17
-46 -32 -52 -34 l-12 -4 23 -46 c13 -25 30 -53 38 -64 8 -10 42 -61 77 -113
34 -52 82 -115 107 -140 l45 -45 50 -18 c64 -22 87 -22 167 4 l65 20 54 46
c57 48 79 81 99 150 l13 41 -7 29 c-4 15 -10 39 -13 53 -4 14 -23 52 -44 85
-21 33 -70 113 -110 178 l-71 117 -17 -1 c-9 0 -37 -14 -63 -31z"/>
<path d="M8789 9766 c-3 -3 -73 -13 -155 -21 -192 -18 -376 -48 -499 -81 -27
-7 -84 -20 -125 -30 -41 -9 -84 -20 -95 -25 -11 -5 -61 -22 -110 -38 -50 -15
-114 -38 -143 -50 -28 -11 -76 -31 -104 -42 -579 -235 -1141 -670 -1542 -1192
-194 -253 -342 -511 -490 -852 -29 -68 -75 -194 -91 -250 -10 -33 -23 -76 -31
-95 -7 -19 -22 -75 -34 -125 -11 -49 -25 -106 -30 -125 -25 -96 -39 -172 -45
-240 -4 -41 -10 -86 -15 -100 -5 -14 -14 -108 -21 -210 -6 -102 -14 -212 -17
-245 -2 -33 1 -109 7 -170 6 -60 15 -159 21 -220 16 -195 37 -329 70 -455 5
-19 19 -73 30 -120 12 -47 27 -103 34 -125 7 -22 19 -58 25 -80 21 -68 82
-238 106 -290 12 -27 33 -75 46 -105 227 -530 719 -1137 1188 -1464 158 -110
194 -134 273 -182 208 -126 445 -242 638 -311 332 -120 625 -187 965 -223 103
-11 595 -11 705 0 180 18 419 56 460 73 8 3 38 10 65 15 67 13 142 32 185 47
19 7 64 22 100 34 111 35 253 87 302 109 26 12 50 22 54 22 7 0 239 116 299
149 22 13 65 38 96 57 31 19 59 34 62 34 3 0 36 21 74 47 37 25 100 68 138 94
192 131 472 381 622 554 114 133 135 160 230 287 131 176 373 586 373 632 0 3
13 34 28 68 43 95 129 324 158 423 51 170 89 352 119 565 63 435 40 943 -60
1355 -9 39 -23 97 -31 130 -28 127 -113 364 -185 523 -16 35 -29 65 -29 68 0
8 -99 206 -109 219 -5 5 -23 37 -41 70 -60 111 -242 376 -322 470 -15 17 -57
66 -94 110 -213 253 -518 521 -804 708 -171 111 -336 202 -510 279 -150 67
-414 160 -550 193 -36 9 -87 22 -115 30 -98 27 -263 55 -480 82 -122 14 -585
29 -596 19z m510 -166 c31 -5 97 -14 146 -21 195 -25 348 -51 395 -67 19 -6
60 -18 90 -26 83 -22 190 -53 240 -71 44 -15 61 -22 125 -50 17 -8 41 -17 55
-21 23 -6 62 -23 210 -92 65 -30 240 -125 290 -157 156 -99 196 -127 280 -189
197 -145 488 -417 620 -581 30 -37 60 -73 65 -79 185 -205 489 -751 577 -1036
11 -36 26 -79 34 -97 8 -17 14 -36 14 -43 0 -6 6 -32 14 -58 44 -152 86 -355
114 -562 l17 -125 0 -305 -1 -305 -12 -95 c-13 -99 -46 -289 -61 -350 -5 -19
-16 -60 -24 -90 -8 -30 -18 -73 -22 -95 -6 -37 -84 -285 -104 -330 -5 -11 -19
-45 -31 -75 -128 -323 -361 -714 -557 -933 -18 -20 -33 -41 -33 -46 0 -14
-309 -321 -400 -397 -77 -64 -297 -231 -345 -261 -18 -11 -216 -130 -255 -153
-8 -5 -76 -39 -150 -76 -74 -37 -143 -71 -153 -76 -11 -5 -60 -25 -110 -44
-51 -19 -106 -41 -124 -49 -17 -8 -36 -15 -43 -15 -6 0 -51 -13 -98 -29 -48
-16 -121 -37 -162 -46 -41 -9 -88 -21 -105 -26 -229 -67 -762 -107 -1047 -79
-278 27 -412 47 -523 75 -27 6 -93 23 -145 35 -52 13 -102 26 -110 30 -27 13
-117 40 -131 40 -8 0 -25 6 -39 13 -14 7 -47 21 -75 31 -618 227 -1216 684
-1624 1241 -147 200 -180 253 -293 475 -18 36 -36 67 -39 70 -4 3 -16 28 -29
55 -12 28 -33 73 -46 102 -13 28 -53 141 -89 250 -36 109 -70 213 -76 230 -5
18 -14 54 -18 80 -8 45 -20 98 -42 183 -17 64 -40 292 -50 479 l-9 183 9 192
c9 172 31 391 46 456 26 112 37 164 49 220 20 90 35 148 45 168 5 9 16 44 26
77 9 33 23 74 31 90 7 17 16 42 20 58 3 15 10 30 15 33 5 3 9 12 9 20 0 8 9
36 21 62 42 96 133 287 141 298 4 6 19 31 32 55 13 24 33 60 44 79 12 19 26
45 31 56 14 31 101 158 168 245 171 222 211 268 368 424 142 143 187 182 337
300 35 27 65 52 68 55 3 4 70 49 150 101 136 89 185 118 316 190 29 15 61 33
71 38 17 9 120 57 205 95 20 9 42 16 50 16 8 0 18 4 23 9 11 10 279 100 375
126 36 9 76 21 90 26 26 10 73 19 195 39 39 6 106 18 150 26 44 7 103 14 130
15 28 1 61 5 75 9 36 11 533 12 599 0z"/>
<path d="M6197 7963 c-4 -3 -7 -15 -7 -25 l0 -18 57 -26 c32 -14 68 -35 80
-46 l23 -21 0 -71 c0 -39 -5 -88 -10 -108 -6 -20 -15 -65 -20 -100 -5 -35 -18
-115 -30 -178 -11 -63 -24 -144 -30 -180 -6 -36 -13 -72 -16 -80 -7 -16 -28
-148 -43 -260 -4 -36 -13 -83 -19 -105 -6 -22 -18 -89 -27 -150 -9 -60 -21
-135 -27 -165 -6 -30 -15 -82 -19 -115 -50 -358 -91 -485 -170 -526 -41 -20
-49 -39 -25 -58 l15 -12 178 12 178 12 100 -10 100 -11 13 10 c6 6 12 18 12
27 l0 16 -37 20 -37 20 -23 40 -23 40 0 82 c0 45 4 103 9 130 6 26 17 118 26
203 9 85 20 175 26 200 10 46 15 79 43 305 8 66 18 131 21 145 3 14 12 77 21
140 15 109 24 191 42 393 5 48 13 92 19 98 l11 11 26 -38 c14 -21 26 -43 26
-48 0 -5 14 -39 31 -75 17 -36 35 -77 41 -91 6 -14 14 -33 19 -43 5 -9 20 -46
33 -80 26 -70 56 -135 122 -271 24 -50 44 -95 44 -102 0 -6 7 -17 15 -24 8 -7
15 -18 15 -26 0 -13 59 -143 185 -409 42 -88 76 -164 105 -235 12 -30 33 -78
46 -107 13 -28 24 -56 24 -62 0 -6 9 -15 20 -21 l20 -11 18 10 c32 17 146 43
226 51 l79 9 12 13 c13 13 30 102 46 233 4 39 15 108 24 155 9 47 22 126 30
175 21 145 43 263 50 275 4 7 11 39 16 73 9 65 31 175 47 242 21 84 35 152 42
205 12 86 38 213 49 243 6 16 11 41 11 56 0 73 45 159 103 196 28 18 33 31 18
54 l-9 13 -178 -12 -179 -12 -38 -16 c-20 -9 -45 -27 -53 -41 l-17 -24 -7 -81
c-4 -45 -13 -110 -19 -146 -6 -36 -18 -105 -26 -155 -7 -49 -19 -119 -26 -155
-14 -84 -35 -238 -60 -445 -6 -55 -16 -109 -22 -119 l-10 -20 -23 30 c-13 16
-24 33 -24 37 0 5 -13 38 -30 74 -16 35 -30 67 -30 71 0 9 -134 285 -229 472
-46 91 -115 228 -153 305 -97 197 -101 205 -118 220 l-15 14 -341 5 c-188 3
-344 3 -347 -1z"/>
<path d="M8478 7275 c-2 -3 -31 -10 -64 -15 -190 -34 -338 -169 -425 -390
l-14 -35 0 -135 0 -135 28 -55 c64 -124 150 -176 308 -187 l85 -6 84 17 83 17
56 31 c31 17 75 46 99 65 l42 34 0 25 c0 68 -21 75 -98 32 -116 -66 -195 -80
-277 -49 l-50 19 -28 34 -28 35 -15 57 c-18 71 -15 76 49 76 120 0 295 53 403
122 172 110 161 349 -19 411 -91 31 -203 48 -219 32z m96 -148 l21 -28 -1 -42
c-1 -47 -30 -111 -66 -144 -56 -51 -198 -117 -240 -111 l-23 3 3 48 3 47 30
67 c37 82 88 147 137 173 l37 20 39 -3 39 -2 21 -28z"/>
<path d="M9472 7261 c-61 -24 -182 -151 -182 -190 0 -5 -11 -16 -24 -25 l-25
-15 -4 12 c-2 6 -1 19 3 27 5 8 14 50 21 94 l13 78 -17 12 -16 13 -63 -8 c-35
-5 -85 -15 -113 -23 -27 -7 -72 -19 -100 -25 -84 -20 -98 -48 -40 -82 19 -12
38 -31 41 -43 8 -33 -32 -282 -55 -339 -6 -16 -11 -43 -11 -60 0 -40 -26 -177
-45 -238 -8 -26 -15 -58 -15 -73 l0 -26 23 -1 c79 -3 303 4 310 10 4 4 14 75
22 157 27 268 40 319 107 410 49 68 100 109 155 124 l44 13 39 -13 39 -13 15
12 15 12 7 57 c3 31 13 70 21 85 l14 29 -16 24 -15 24 -53 -1 c-28 -1 -71 -9
-95 -18z"/>
<path d="M11060 7277 c-3 -3 -37 -11 -75 -17 l-70 -11 -72 -36 c-129 -63 -293
-261 -293 -353 0 -9 -6 -22 -12 -28 l-13 -13 -3 -110 -4 -110 17 -47 c10 -26
32 -68 48 -93 l30 -46 46 -30 c25 -16 68 -37 95 -47 l48 -18 117 -1 116 -1 53
18 c116 39 252 133 252 174 0 63 -51 75 -123 31 -163 -100 -313 -85 -376 38
l-21 42 0 46 0 45 58 0 c97 0 246 39 361 94 l63 30 42 48 41 47 18 52 19 51
-18 58 c-35 116 -109 163 -294 186 -25 3 -47 3 -50 1z m70 -144 l22 -28 -4
-55 -4 -56 -29 -44 c-30 -43 -121 -114 -160 -124 -11 -3 -42 -11 -70 -19 l-50
-15 -12 10 -13 10 6 27 c46 195 145 319 256 321 l37 0 21 -27z"/>
<path d="M9860 7253 c-19 -2 -68 -11 -107 -19 l-73 -16 0 -29 c0 -15 6 -43 14
-61 8 -18 21 -60 29 -93 8 -33 20 -80 27 -105 17 -67 26 -105 49 -210 34 -148
40 -179 57 -270 9 -47 22 -96 31 -109 l15 -24 104 7 c142 9 121 -8 222 176 14
25 30 51 35 59 12 14 32 48 43 71 4 8 17 31 29 50 12 19 41 71 65 115 24 44
51 91 60 105 10 14 29 48 44 75 15 28 35 64 46 80 20 31 23 36 78 129 18 31
31 60 27 66 -7 11 -78 13 -178 3 l-68 -6 -15 -36 c-9 -20 -27 -71 -41 -114
-14 -42 -29 -80 -34 -83 -5 -3 -9 -12 -9 -19 0 -13 -55 -134 -152 -332 -17
-35 -36 -63 -43 -63 l-12 0 -17 133 c-9 72 -21 166 -27 207 -6 41 -14 123 -17
181 l-7 106 -14 17 -13 16 -57 -2 c-31 0 -72 -3 -91 -5z"/>
<path d="M8800 6158 l-35 -10 -212 0 -213 1 -6 -11 c-4 -5 7 -22 24 -38 l31
-28 7 -38 c11 -59 -8 -222 -55 -466 -6 -32 -16 -84 -22 -115 -6 -32 -17 -89
-25 -128 -8 -38 -19 -92 -23 -120 -36 -198 -55 -282 -77 -332 -8 -17 -14 -42
-14 -55 0 -12 -7 -32 -15 -42 -8 -11 -15 -26 -15 -33 0 -17 -59 -137 -94 -193
-66 -102 -170 -200 -260 -242 -100 -48 -122 -55 -224 -73 l-103 -18 -117 17
c-146 22 -233 54 -320 118 l-43 32 -17 -10 c-9 -6 -19 -20 -21 -30 -14 -77
-69 -150 -157 -207 -27 -18 -50 -39 -52 -48 l-3 -16 78 -38 c43 -21 87 -41 98
-45 11 -4 33 -13 49 -19 132 -54 560 -74 741 -35 117 25 290 86 335 118 8 6
31 20 50 30 249 136 451 461 511 821 4 28 15 84 24 125 9 41 20 100 25 130 12
67 37 194 55 275 7 33 20 96 29 140 9 44 21 103 27 130 5 28 14 75 19 106 5
31 14 68 20 83 5 15 10 38 10 52 0 40 36 100 85 141 l46 38 -3 20 -3 20 -50 2
c-27 1 -66 -3 -85 -9z"/>
<path d="M10066 6021 c-27 -15 -60 -42 -73 -61 l-23 -34 0 -49 c0 -64 13 -85
67 -108 105 -45 251 7 298 108 l17 35 -6 31 c-8 39 -33 70 -74 91 l-31 16 -63
-1 -63 0 -49 -28z"/>
<path d="M11910 5957 c-24 -13 -186 -78 -245 -100 -16 -5 -37 -17 -47 -24
l-16 -14 -4 -82 c-3 -45 -10 -94 -16 -109 l-12 -28 -75 0 -76 0 -4 -12 c-2 -7
-6 -34 -10 -60 l-6 -48 71 0 71 0 8 -22 c4 -12 4 -38 0 -57 -4 -20 -14 -72
-23 -116 -8 -44 -22 -118 -32 -165 -60 -305 -15 -423 177 -459 l67 -13 78 13
c94 14 172 47 231 95 l43 35 0 23 c0 49 -41 58 -111 26 l-44 -20 -47 0 -46 0
-32 26 -31 27 3 76 c2 42 9 96 16 121 6 25 18 88 26 140 30 192 37 234 46 250
l9 17 109 -5 109 -4 21 11 c12 6 22 17 22 24 0 7 9 29 20 49 l20 37 -13 8 c-6
4 -68 8 -137 8 l-124 0 -4 19 c-4 20 14 109 50 238 l21 78 -13 15 c-15 18 -18
18 -50 2z"/>
<path d="M7559 5844 c-260 -51 -351 -219 -217 -395 38 -50 36 -55 -23 -76
l-50 -18 -54 -48 -53 -47 -26 -52 -26 -52 0 -42 c0 -23 3 -56 6 -73 l7 -32 46
-47 47 -47 51 -17 51 -18 89 0 89 0 50 16 c27 10 78 37 115 60 80 54 83 54
146 -1 l51 -45 116 0 116 0 0 20 0 20 -42 27 c-69 43 -167 125 -173 144 l-6
17 71 93 c75 98 96 118 145 134 l30 10 3 24 4 24 -14 8 c-15 10 -258 12 -282
3 -26 -10 -18 -31 19 -53 l35 -20 0 -27 c0 -34 -59 -144 -77 -144 -8 0 -33 21
-56 47 -23 26 -62 70 -87 98 -104 115 -159 182 -179 222 l-21 42 0 40 0 40 33
34 34 33 54 13 55 13 39 -18 40 -19 13 -29 14 -28 -12 -59 -13 -59 12 -14 12
-15 17 6 c9 3 32 17 50 31 l34 24 19 45 c68 160 -69 254 -302 207z m-17 -630
c67 -69 124 -133 126 -143 l3 -17 -23 -12 c-51 -26 -113 -42 -167 -42 l-56 0
-39 23 c-73 42 -101 114 -77 202 13 48 66 115 91 115 l18 0 124 -126z"/>
<path d="M9233 5630 c-129 -27 -259 -107 -336 -206 -75 -95 -112 -180 -128
-296 l-12 -88 12 -72 c27 -164 126 -268 293 -307 94 -22 284 -7 345 27 12 6
27 12 33 12 23 0 126 76 182 134 l56 59 31 63 c17 35 31 72 31 82 0 10 5 23
10 28 6 6 15 47 20 92 l9 82 -8 72 c-18 155 -86 241 -233 298 l-53 20 -105 5
c-58 2 -124 0 -147 -5z m196 -151 c42 -42 46 -62 45 -224 l-1 -140 -21 -60
c-42 -120 -95 -201 -162 -248 l-24 -17 -58 0 -57 0 -33 29 -33 29 -17 59 c-22
72 -23 125 -3 189 8 27 15 63 15 79 0 100 97 268 180 314 l35 20 52 0 51 1 31
-31z"/>
<path d="M10690 5629 c-19 -4 -71 -16 -115 -28 -44 -12 -109 -26 -144 -31 -35
-4 -70 -15 -78 -23 l-15 -15 6 -19 6 -19 35 -13 35 -12 6 -23 c3 -12 0 -51 -6
-86 -6 -36 -15 -87 -20 -115 -8 -46 -40 -227 -60 -338 -5 -26 -13 -62 -19 -80
-5 -17 -13 -51 -19 -74 l-9 -41 9 -16 9 -16 148 0 147 0 16 13 16 12 5 115 c6
123 20 206 43 257 8 17 14 33 14 36 0 44 183 258 249 292 l34 17 23 -11 24
-11 0 -47 c0 -52 -17 -143 -57 -293 -33 -127 -46 -215 -40 -273 l4 -49 37 -36
36 -37 98 1 97 1 63 33 62 32 0 29 0 29 -18 0 c-46 0 -65 51 -51 143 26 181
41 266 55 314 l16 52 1 114 1 114 -17 27 c-10 15 -32 36 -50 46 l-32 20 -60 0
-60 0 -53 -19 c-86 -32 -139 -68 -236 -162 -134 -130 -140 -124 -76 87 29 94
15 118 -60 103z"/>
<path d="M10120 5610 c-45 -15 -124 -33 -178 -41 -63 -9 -102 -32 -102 -59 l0
-20 28 -6 c15 -4 33 -11 40 -17 l12 -9 0 -47 c0 -25 -5 -66 -11 -91 -6 -25
-14 -72 -19 -105 -14 -95 -54 -275 -79 -355 -23 -74 -6 -131 51 -171 l32 -23
86 1 85 1 40 17 c72 29 105 49 111 67 7 23 -3 38 -25 38 -10 0 -28 11 -40 24
l-23 25 20 138 c12 76 28 174 37 218 8 44 20 112 26 150 6 39 14 84 19 100 5
17 12 57 16 89 l7 59 -18 13 c-20 15 -75 17 -115 4z"/>
<path d="M6041 9505 l-44 -44 11 -83 c7 -46 12 -100 12 -121 l0 -39 -41 7
c-23 4 -56 13 -73 20 -17 7 -52 16 -78 19 l-48 7 -50 -49 c-27 -27 -50 -57
-50 -66 l0 -16 16 0 c16 0 92 -15 224 -45 36 -9 73 -15 82 -15 29 0 35 -28 48
-200 15 -211 19 -217 103 -132 l47 48 0 48 c0 26 -5 56 -10 66 -6 11 -13 46
-17 80 l-6 60 24 0 c13 0 60 -11 104 -25 44 -14 90 -25 103 -25 l24 0 54 42
54 43 0 17 c0 23 -16 31 -80 39 -30 4 -86 15 -125 24 -38 9 -88 20 -109 25
-22 4 -45 15 -52 24 l-11 16 -7 133 c-4 72 -9 144 -12 160 l-6 27 -21 -1 -22
0 -44 -44z"/>
<path d="M11765 9263 c-116 -119 -210 -222 -210 -230 0 -17 236 -237 277 -258
132 -67 261 -56 367 33 l46 38 27 55 c15 30 30 72 35 94 l8 40 -15 60 c-25
101 -90 183 -283 359 -38 36 -20 49 -252 -191z m307 -40 c88 -90 107 -154 68
-237 l-21 -43 -45 -33 -46 -33 -42 -4 -43 -5 -34 17 c-31 16 -97 65 -142 106
-11 10 -17 24 -15 33 4 20 237 256 252 256 6 0 37 -26 68 -57z"/>
<path d="M5529 9007 c-8 -12 -26 -37 -39 -54 l-23 -33 17 -19 c10 -11 69 -57
132 -103 l114 -83 -3 -15 -2 -15 -220 3 -220 4 -36 -39 c-20 -21 -39 -46 -42
-56 l-7 -18 24 -22 c12 -12 38 -33 56 -47 86 -64 147 -113 264 -208 l127 -103
17 5 c20 7 67 63 76 93 l7 21 -33 23 c-18 12 -47 34 -64 48 -17 14 -63 51
-102 81 l-71 54 11 13 10 13 217 -7 218 -6 36 48 c21 26 37 53 37 60 0 7 -74
71 -164 144 -89 72 -191 155 -225 186 -67 60 -88 66 -112 32z"/>
<path d="M12095 8640 c-29 -11 -41 -29 -54 -76 l-11 -40 -55 -23 -56 -23 3
-16 c2 -8 15 -24 29 -35 l27 -19 43 10 c24 6 66 17 92 23 l49 13 28 26 c16 15
32 39 36 55 l7 27 -17 34 -16 34 -26 10 c-30 12 -51 12 -79 0z"/>
<path d="M12691 8405 c-79 -52 -166 -109 -195 -127 -28 -18 -58 -37 -67 -43
-9 -5 -35 -21 -58 -35 -22 -14 -43 -32 -46 -41 l-5 -16 36 -54 c20 -30 38 -56
40 -58 2 -3 48 25 102 61 141 95 223 148 227 148 2 0 33 20 69 45 37 25 70 45
74 45 15 1 52 39 52 55 0 21 -61 115 -75 115 -6 0 -76 -43 -154 -95z"/>
<path d="M4966 8201 c-8 -9 -26 -39 -40 -67 l-27 -51 8 -19 c3 -10 17 -30 29
-44 63 -71 314 -395 355 -457 l21 -33 18 10 c23 13 60 88 60 124 l0 29 -35 39
-36 39 6 18 c3 10 26 56 50 102 25 45 45 86 45 90 0 4 7 15 16 24 l17 16 51
-1 c28 -1 59 -1 68 -1 l17 1 31 56 32 56 -11 11 c-6 6 -50 14 -99 18 -230 18
-351 30 -397 39 -27 5 -76 11 -107 13 l-58 4 -14 -16z m292 -148 l54 -6 -5
-26 c-7 -34 -68 -130 -83 -131 -13 0 -134 144 -134 160 l0 10 58 0 c31 0 81
-3 110 -7z"/>
<path d="M12915 8146 c-91 -46 -146 -72 -372 -176 l-73 -34 0 -15 c0 -24 41
-101 59 -110 l16 -9 35 17 c19 10 86 44 148 76 l113 58 10 -10 10 -10 -38 -72
c-21 -39 -55 -104 -76 -144 -22 -40 -52 -97 -67 -128 l-29 -56 18 -49 19 -49
22 -3 22 -4 126 62 c70 34 141 68 157 75 47 21 95 42 157 70 31 14 68 29 83
35 l25 10 0 24 c0 14 -4 27 -9 31 -5 3 -12 19 -16 36 l-7 30 -21 10 -22 10
-150 -76 -149 -75 -10 10 -10 10 28 53 c181 334 186 350 153 412 -29 52 -35
52 -152 -9z"/>
<path d="M4722 7697 c-6 -7 -18 -34 -27 -60 l-16 -47 10 -18 9 -18 74 -23 c40
-13 96 -34 123 -46 28 -12 70 -30 95 -39 25 -10 59 -24 75 -31 136 -58 179
-75 191 -75 19 0 45 55 47 101 l2 40 -45 18 c-25 11 -97 40 -160 66 -63 25
-128 53 -145 60 -16 8 -52 23 -80 35 -27 12 -64 28 -82 36 -38 17 -57 18 -71
1z"/>
<path d="M12995 7401 l-60 -28 -47 -47 -47 -47 -20 -55 -21 -55 0 -63 0 -62
17 -50 c37 -109 147 -217 195 -193 13 7 58 88 58 104 0 1 -18 15 -40 30 -22
15 -49 42 -60 60 l-20 32 0 68 0 67 16 26 c37 64 136 105 217 91 l38 -6 37
-30 37 -30 19 -57 18 -58 -17 -54 c-21 -68 -19 -75 46 -112 61 -35 62 -34 86
16 l18 37 -1 100 -1 100 -22 47 c-12 26 -44 72 -72 102 l-51 56 -45 20 -46 20
-86 -1 -86 0 -60 -28z"/>
<path d="M4596 7350 c-9 -22 -16 -46 -16 -54 0 -7 -16 -62 -35 -121 -42 -127
-42 -127 25 -149 l52 -17 12 10 c15 13 32 67 41 134 9 58 16 63 69 47 22 -6
66 -19 96 -27 111 -32 156 -48 183 -67 l27 -20 0 -31 0 -32 -23 -24 c-13 -13
-36 -33 -52 -45 l-29 -21 29 -56 c15 -31 34 -57 41 -57 46 0 111 55 146 124
l21 41 1 80 1 81 -19 29 c-35 56 -77 81 -196 116 -36 10 -87 26 -115 34 -27 8
-85 26 -129 40 -43 14 -86 25 -96 25 l-18 0 -16 -40z"/>
<path d="M12947 6722 c-39 -26 -56 -53 -57 -87 l0 -30 25 -27 25 -27 34 -6 34
-7 30 16 30 16 12 35 12 35 -11 33 -11 32 -31 18 c-39 22 -57 21 -92 -1z"/>
<path d="M6973 2558 c-5 -7 -40 -76 -77 -153 -38 -77 -95 -193 -127 -258 -33
-66 -59 -124 -59 -130 0 -11 389 -207 425 -215 l14 -3 21 33 c11 18 20 43 20
55 l0 23 -97 46 c-54 25 -117 56 -140 67 l-43 22 0 18 c0 22 22 75 43 102 l15
20 19 -16 c10 -8 53 -32 95 -53 43 -20 80 -42 83 -47 10 -15 51 -10 67 9 30
33 34 102 7 102 -5 0 -56 22 -114 50 l-105 49 0 14 c0 25 40 97 54 97 8 0 71
-29 141 -64 140 -72 141 -72 172 -16 l23 39 -6 15 c-3 8 -27 25 -52 37 -26 11
-113 54 -194 95 -153 77 -169 82 -185 62z"/>
<path d="M10848 2507 l-57 -31 -10 -25 c-6 -14 -15 -53 -20 -86 -15 -92 -40
-217 -51 -250 -5 -16 -11 -55 -14 -85 l-6 -55 13 -35 12 -35 23 -3 22 -3 135
67 134 67 16 -13 c8 -7 15 -18 15 -25 0 -18 33 -75 43 -75 5 0 33 12 63 27
l54 26 0 19 c0 10 -9 36 -20 58 -26 50 -26 48 15 66 l35 14 0 26 c0 27 -14 59
-38 87 l-15 17 -34 -20 c-40 -24 -50 -20 -69 27 -8 18 -22 37 -30 40 l-16 6
-49 -24 c-60 -30 -62 -36 -36 -87 l20 -41 -13 -16 c-12 -15 -93 -55 -111 -55
-15 0 -10 55 16 162 51 206 57 233 59 258 l1 24 -15 2 c-8 1 -41 -12 -72 -29z"/>
<path d="M7535 2279 c-67 -16 -135 -100 -135 -169 0 -54 62 -146 115 -171 31
-15 56 -31 108 -68 l47 -34 0 -27 c0 -52 -77 -68 -157 -32 -40 18 -46 22 -115
85 l-41 38 -39 -38 c-21 -20 -38 -45 -38 -54 0 -26 85 -96 162 -134 l69 -33
64 -7 c36 -4 86 -4 111 0 l46 7 44 44 43 45 6 44 7 44 -11 34 -12 35 -47 44
c-26 24 -72 58 -102 75 -30 18 -68 45 -84 62 l-29 31 11 25 12 25 61 0 61 0
31 -17 c18 -10 48 -30 68 -45 47 -35 54 -35 90 4 35 39 36 58 7 84 -99 88
-241 129 -353 103z"/>
<path d="M10205 2239 c-87 -44 -145 -106 -145 -155 l0 -22 44 -17 44 -17 19 6
c10 4 27 21 38 39 36 58 110 81 165 52 l30 -16 0 -41 0 -42 -21 -40 c-11 -23
-29 -54 -40 -71 -10 -16 -23 -39 -28 -50 -5 -11 -21 -37 -35 -58 -14 -21 -26
-42 -26 -46 0 -5 -6 -14 -14 -20 -22 -18 -29 -64 -16 -110 l11 -41 18 0 c10 0
54 11 97 25 131 42 256 82 303 96 54 16 59 30 33 85 -26 53 -38 54 -147 9 -41
-17 -99 -35 -113 -35 -19 0 -15 12 37 98 28 45 59 102 70 128 l21 47 0 44 c0
70 -32 129 -92 166 l-27 17 -83 0 -83 -1 -60 -30z"/>
<path d="M7956 2159 c-9 -13 -16 -40 -16 -60 l0 -37 14 -11 c7 -6 41 -14 74
-17 l61 -7 17 -18 17 -19 -17 -83 c-10 -45 -22 -98 -27 -117 -14 -55 -40 -181
-46 -227 l-6 -43 29 -11 c16 -6 50 -14 76 -16 l47 -5 6 28 c3 16 9 38 11 49 3
11 12 52 19 90 8 39 16 81 19 95 3 14 12 69 21 122 20 116 15 112 107 93 40
-8 83 -15 94 -15 l21 0 7 38 c8 50 7 64 -3 81 l-10 15 -53 6 c-29 4 -82 12
-118 19 -36 7 -99 19 -140 27 -74 15 -140 30 -171 40 l-17 6 -16 -23z"/>
<path d="M9709 2121 c-15 -3 -47 -19 -71 -35 l-45 -28 -33 -57 -33 -56 1 -107
0 -107 18 -48 c34 -91 72 -138 144 -178 l35 -19 80 0 80 0 41 22 c49 25 100
80 125 136 l19 41 0 97 0 98 -35 74 -34 74 -47 41 c-64 56 -151 75 -245 52z
m133 -142 l29 -21 25 -55 24 -55 0 -84 0 -83 -35 -36 -36 -35 -35 0 -36 0 -29
21 c-16 11 -38 41 -50 67 l-21 47 -1 93 -2 93 37 35 38 34 31 0 31 0 30 -21z"/>
<path d="M9046 2036 c-55 -28 -116 -83 -116 -105 l0 -16 53 -26 52 -26 23 10
c12 6 22 14 22 18 0 32 131 50 168 23 l22 -15 0 -37 c0 -41 -20 -76 -65 -117
-83 -75 -225 -219 -226 -229 -3 -27 4 -73 13 -90 l10 -18 51 7 c29 4 133 10
232 14 l180 6 0 55 0 55 -127 3 -128 3 0 9 c0 5 38 46 85 91 l85 83 25 52 c49
104 16 202 -87 255 l-37 19 -93 0 -93 -1 -49 -23z"/>
<path d="M8449 1591 l-29 -29 0 -35 0 -35 26 -31 26 -31 47 0 48 0 24 26 24
26 0 45 0 45 -28 24 -28 24 -40 0 -41 0 -29 -29z"/>
</g>
</svg>
