<?xml version="1.0" standalone="no"?>
<!DOCTYPE svg PUBLIC "-//W3C//DTD SVG 20010904//EN"
 "http://www.w3.org/TR/2001/REC-SVG-20010904/DTD/svg10.dtd">
<svg version="1.0" xmlns="http://www.w3.org/2000/svg"
 width="1800.000000pt" height="798.000000pt" viewBox="0 0 1800.000000 798.000000"
 preserveAspectRatio="xMidYMid meet">
<g transform="translate(0.000000,798.000000) scale(0.100000,-0.100000)"
fill="#000000" stroke="none">
<path d="M1887 5485 l-17 -16 11 -20 c5 -11 22 -24 37 -30 43 -15 75 -32 109
-57 l33 -24 14 -49 15 -49 -10 -83 c-5 -45 -14 -122 -19 -172 -5 -49 -14 -106
-20 -125 -5 -19 -10 -55 -10 -80 0 -25 -7 -72 -15 -105 -8 -33 -14 -76 -15
-95 0 -19 -6 -71 -14 -115 -21 -115 -38 -220 -46 -295 -4 -36 -12 -92 -18
-125 -29 -157 -42 -235 -42 -256 0 -115 -97 -282 -181 -311 -16 -6 -34 -19
-40 -30 l-11 -20 11 -11 10 -10 330 -1 331 -1 5 13 c6 16 -12 52 -26 52 -20 0
-95 39 -112 58 l-18 20 -12 65 -11 64 13 164 c12 164 29 328 56 534 8 61 17
135 20 165 2 30 9 87 15 125 5 39 9 98 10 132 0 76 17 158 35 173 l13 11 73
-143 c85 -168 124 -242 148 -283 10 -16 35 -61 56 -100 69 -129 98 -179 140
-250 22 -38 44 -77 48 -85 4 -8 13 -24 20 -35 7 -11 30 -52 52 -90 22 -39 44
-78 50 -87 5 -9 22 -39 36 -65 15 -26 36 -64 48 -83 11 -19 24 -42 28 -50 4
-8 25 -46 47 -85 23 -38 50 -87 61 -109 11 -21 32 -52 47 -68 l27 -29 33 6
c18 3 90 7 159 9 70 2 131 6 136 9 9 6 18 86 37 322 6 74 30 275 45 375 21
141 41 265 52 320 6 30 14 84 19 120 4 36 12 85 18 110 5 25 17 90 26 145 9
55 23 129 31 165 9 36 15 73 15 84 0 10 8 41 17 70 52 162 87 212 175 255 l47
22 7 21 6 20 -13 12 -14 13 -95 -8 c-52 -4 -154 -8 -225 -8 l-130 -1 -37 -31
-38 -30 -15 -51 -15 -52 0 -120 c0 -67 -6 -193 -15 -281 -28 -306 -46 -530
-46 -600 0 -38 -6 -108 -13 -155 l-11 -85 -17 -3 -17 -3 -6 28 c-10 43 -141
318 -221 463 -20 36 -51 92 -69 125 -18 34 -47 84 -64 113 -17 29 -31 55 -31
57 0 2 -20 38 -45 79 -25 42 -45 79 -45 81 0 3 -11 22 -23 43 -13 20 -43 73
-67 117 -24 44 -52 96 -63 115 -11 19 -35 64 -55 100 -19 36 -39 70 -43 76
l-9 12 -318 5 c-174 3 -326 8 -338 12 l-21 7 -16 -17z"/>
<path d="M10703 5477 c-2 -4 -1 -16 2 -28 l7 -20 54 -25 c30 -13 61 -35 70
-49 l16 -24 -5 -68 c-4 -71 -18 -176 -42 -328 -8 -49 -17 -108 -19 -130 -3
-22 -9 -65 -15 -95 -9 -52 -21 -121 -57 -350 -8 -52 -21 -133 -29 -180 -8 -47
-16 -101 -19 -120 -4 -34 -11 -73 -42 -230 -21 -105 -48 -189 -90 -285 -7 -16
-15 -37 -18 -45 -4 -8 -15 -28 -26 -45 -11 -16 -24 -39 -29 -51 -16 -36 -144
-159 -190 -183 l-43 -22 -77 -5 -76 -6 -68 16 c-88 21 -83 21 -101 -16 -20
-39 -20 -56 -1 -101 l15 -36 45 -27 45 -26 87 -19 c132 -29 306 -17 410 27 17
8 36 14 43 14 18 0 161 81 188 108 8 7 30 24 49 39 31 24 153 173 153 187 0 3
14 25 30 49 17 25 30 51 30 59 0 7 6 22 13 33 7 11 21 47 32 80 10 33 24 77
31 98 8 20 14 51 14 67 0 16 4 40 10 54 5 14 14 58 20 98 6 40 16 111 24 158
7 47 19 119 25 160 6 41 16 95 21 120 5 25 12 63 15 85 3 22 12 76 20 120 8
44 21 125 30 180 9 55 21 125 27 155 6 30 14 80 18 110 36 284 96 406 214 436
l26 6 6 25 c4 13 3 27 0 30 -9 10 -837 10 -843 0z"/>
<path d="M13029 5341 c-60 -21 -129 -65 -154 -99 l-20 -27 -3 -66 -4 -67 36
-40 36 -40 45 -11 c116 -29 232 -3 311 71 l31 29 18 53 18 53 -18 46 c-21 55
-45 78 -105 100 l-46 17 -49 -1 c-28 -1 -71 -9 -96 -18z"/>
<path d="M15385 5178 c-38 -16 -79 -34 -90 -39 -11 -5 -33 -13 -50 -18 -16 -5
-55 -19 -85 -31 -30 -12 -66 -25 -80 -29 l-25 -7 -3 -30 c-1 -16 -9 -62 -17
-103 -8 -40 -15 -90 -15 -110 l0 -37 -19 -21 -19 -20 -78 -6 -78 -7 -21 -14
-22 -15 -7 -56 c-3 -31 -4 -61 0 -66 l6 -11 92 4 91 3 -3 -75 c-1 -41 -7 -88
-12 -105 -5 -16 -14 -57 -19 -90 -5 -33 -14 -85 -19 -115 -13 -66 -37 -216
-52 -322 l-11 -77 12 -63 c23 -116 83 -190 186 -230 l48 -19 130 4 130 4 51
16 c106 32 263 124 278 163 3 8 -4 32 -15 54 l-21 40 -18 0 c-10 0 -50 -16
-89 -35 l-70 -35 -70 0 -70 0 -36 36 -36 36 3 101 c4 99 15 184 43 337 28 150
45 267 45 307 l0 40 19 17 18 17 141 -12 140 -11 20 11 20 11 7 32 c4 18 11
38 15 43 4 6 10 24 13 42 l6 32 -15 16 -16 16 -42 -5 c-22 -3 -93 -7 -156 -8
l-115 -3 3 62 c1 35 9 81 17 104 8 23 15 54 15 69 0 15 7 47 15 71 9 24 17 70
18 102 l2 60 -10 3 c-5 2 -41 -11 -80 -28z"/>
<path d="M9275 5183 c-59 -5 -141 -30 -214 -65 l-64 -31 -52 -54 -52 -53 -27
-55 -26 -56 0 -84 0 -85 32 -67 c17 -38 47 -89 65 -115 18 -26 33 -54 33 -62
l0 -15 -77 -37 c-189 -91 -295 -211 -329 -369 l-13 -60 10 -75 c22 -158 108
-253 297 -324 l42 -16 121 0 120 0 52 16 c129 40 247 106 316 178 46 47 41 49
151 -49 52 -47 98 -85 104 -85 5 0 17 -6 25 -13 9 -8 36 -21 61 -30 l46 -17
71 0 72 0 61 32 61 33 -3 24 -3 24 -30 10 c-91 27 -218 114 -332 227 -77 74
-77 64 2 165 36 45 65 85 65 89 0 9 102 158 130 189 35 40 110 94 142 102 14
4 35 17 47 29 l20 22 -5 21 c-8 28 -22 31 -139 21 -55 -5 -167 -7 -250 -6
l-150 3 -3 -27 -3 -28 38 -16 c21 -9 54 -24 73 -34 l35 -18 3 -21 c5 -31 -30
-124 -86 -232 l-49 -94 -19 -3 -19 -3 -75 82 c-41 45 -82 89 -91 98 -101 102
-330 404 -363 478 l-18 42 -2 78 -1 79 19 30 c27 41 47 59 96 84 l43 22 87 -4
87 -3 37 -29 c40 -30 65 -77 73 -138 l5 -37 -17 -65 c-19 -71 -16 -96 14 -96
l19 0 50 55 c27 30 60 76 73 102 l24 48 0 65 -1 65 -19 30 c-33 50 -89 95
-117 95 -7 0 -25 6 -40 14 l-26 14 -84 4 c-45 3 -101 3 -123 1z m-170 -891
c38 -48 76 -94 85 -103 119 -124 286 -303 288 -310 6 -16 -19 -39 -72 -65 -28
-14 -58 -29 -66 -33 -8 -5 -39 -16 -69 -25 l-53 -16 -82 0 -81 0 -51 24 c-64
30 -109 76 -141 146 l-25 55 0 90 0 91 31 65 c17 35 51 88 76 117 l47 52 21 0
22 0 70 -88z"/>
<path d="M5701 4793 c-98 -20 -231 -187 -285 -355 -3 -10 -10 -18 -16 -18
l-10 0 0 49 c0 26 5 61 10 78 12 33 27 186 22 221 l-3 22 -36 0 c-19 0 -56 -7
-82 -14 -25 -8 -71 -22 -101 -30 -30 -8 -80 -22 -111 -30 -31 -9 -64 -16 -75
-16 -10 0 -34 -9 -51 -20 l-33 -20 0 -18 c0 -21 22 -43 63 -60 15 -6 32 -23
37 -38 l10 -26 -9 -91 c-5 -51 -15 -123 -21 -162 -29 -183 -42 -265 -52 -320
-6 -33 -14 -85 -18 -115 -9 -75 -30 -177 -45 -225 -7 -22 -16 -52 -19 -66 l-6
-27 13 -9 12 -9 215 5 215 6 6 185 c4 102 12 209 18 239 6 29 11 72 11 95 0
40 28 153 47 192 6 10 18 37 29 59 56 121 135 205 214 226 l45 12 58 -27 c31
-15 62 -26 69 -24 16 6 47 160 48 239 l0 67 -16 13 -16 13 -56 2 c-32 1 -68 0
-81 -3z"/>
<path d="M4275 4773 c-117 -36 -215 -96 -304 -184 -111 -111 -148 -180 -212
-389 l-14 -45 1 -165 0 -165 21 -53 c59 -146 156 -237 302 -281 l69 -21 117 0
117 0 56 16 c32 8 66 19 77 24 11 5 31 14 45 20 65 28 175 111 214 163 l26 34
-21 47 c-11 26 -27 50 -35 53 l-14 5 -37 -29 c-156 -120 -360 -146 -470 -59
-58 47 -113 168 -113 251 l0 25 26 10 c14 6 64 10 111 10 l87 0 60 16 c117 29
196 57 246 85 8 5 24 13 36 18 37 16 132 111 160 159 l27 47 0 101 0 100 -19
35 c-48 87 -111 136 -217 169 l-62 20 -115 -1 -115 -1 -50 -15z m217 -158 l27
-25 7 -36 c4 -20 4 -64 2 -97 l-5 -62 -22 -41 c-49 -93 -227 -194 -344 -194
-47 0 -49 5 -32 86 36 178 106 312 194 369 l36 24 55 0 55 1 27 -25z"/>
<path d="M7610 4781 c-8 -5 -31 -12 -50 -16 -19 -4 -68 -23 -107 -41 l-72 -34
-67 -62 c-60 -56 -154 -168 -154 -182 0 -4 -10 -23 -23 -44 -24 -38 -51 -110
-82 -216 l-18 -59 0 -136 0 -136 22 -65 c54 -157 152 -252 311 -302 l55 -18
128 0 128 0 52 16 c119 36 244 112 326 197 l34 36 -17 38 c-36 82 -48 88 -98
50 -276 -208 -578 -116 -578 176 l0 45 16 6 c9 3 55 6 104 6 l89 0 78 19 c236
56 384 146 445 269 l23 47 0 100 0 100 -29 48 c-44 74 -101 114 -211 151 l-50
16 -120 0 c-66 0 -127 -4 -135 -9z m191 -173 l24 -33 0 -85 -1 -85 -22 -42
c-53 -101 -252 -212 -362 -201 l-35 3 2 25 c2 39 23 122 39 157 8 17 14 35 14
41 0 53 96 186 170 235 l24 17 61 0 61 0 25 -32z"/>
<path d="M11829 4770 c-194 -52 -343 -174 -433 -357 -49 -98 -53 -108 -66
-163 -26 -107 -29 -131 -29 -250 l-1 -125 21 -65 c50 -162 145 -255 322 -318
l72 -25 150 0 150 0 67 21 c334 105 505 346 525 739 l5 102 -17 73 c-18 79
-49 148 -92 204 -29 39 -135 124 -153 124 -6 0 -21 5 -33 12 -12 7 -51 20 -87
30 l-65 17 -135 -1 -135 -1 -66 -17z m286 -158 c22 -15 51 -48 65 -72 l25 -45
-1 -180 0 -180 -18 -80 c-22 -99 -45 -181 -62 -220 -7 -16 -15 -37 -19 -45
-20 -50 -67 -111 -109 -141 l-39 -29 -64 0 -63 0 -38 25 c-42 28 -64 64 -86
147 l-16 56 0 98 c0 103 21 258 46 334 8 25 14 53 14 63 0 10 18 57 41 103
l40 86 36 34 c20 19 52 43 72 54 l36 19 50 0 50 0 40 -27z"/>
<path d="M13080 4775 c-25 -7 -74 -21 -110 -30 -36 -9 -88 -23 -116 -31 -28
-8 -61 -14 -73 -14 -34 0 -78 -27 -84 -52 l-6 -22 12 -14 c6 -8 31 -23 54 -33
l42 -18 7 -27 c10 -41 -32 -413 -50 -443 -3 -5 -10 -35 -16 -68 -12 -71 -34
-183 -49 -243 -6 -25 -11 -73 -11 -108 l0 -63 20 -37 c28 -52 41 -67 77 -85
l32 -17 81 0 81 0 61 21 c131 44 213 98 206 136 l-3 18 -40 5 c-22 3 -53 14
-68 24 l-29 19 5 111 c2 61 9 136 15 166 6 30 19 102 28 160 8 58 20 125 26
150 6 25 14 74 18 110 5 36 13 90 19 120 5 30 17 95 25 143 l15 89 -16 24 -15
24 -47 -1 c-25 0 -66 -6 -91 -14z"/>
<path d="M13765 4775 c-77 -26 -152 -45 -177 -45 -14 0 -42 -7 -61 -15 -20 -8
-49 -15 -64 -15 -15 0 -39 -9 -51 -18 l-24 -18 4 -29 3 -28 35 -18 c19 -10 43
-28 52 -40 l18 -21 -6 -57 c-3 -31 -12 -96 -20 -146 -8 -49 -22 -133 -30 -185
-9 -52 -22 -129 -30 -170 -7 -41 -16 -91 -18 -110 -8 -59 -25 -136 -67 -303
-17 -68 -40 -62 244 -59 l187 2 0 42 c0 112 50 469 77 548 68 200 258 430 356
430 l23 0 28 -29 27 -29 -4 -88 c-4 -85 -13 -143 -39 -244 -6 -25 -15 -67 -19
-95 -10 -63 -26 -142 -45 -222 -8 -34 -14 -98 -14 -142 l0 -81 24 -39 c14 -21
40 -48 59 -60 l34 -21 89 0 89 1 50 17 c76 27 162 72 186 98 l21 22 -7 21 -6
21 -34 0 -34 0 -28 24 -28 24 2 89 c2 48 9 122 17 163 8 41 22 120 31 175 9
55 23 131 32 168 l16 69 1 126 0 127 -21 41 c-29 54 -72 94 -125 115 l-43 18
-60 0 -60 1 -55 -18 c-145 -46 -265 -152 -404 -359 -16 -24 -33 -40 -38 -37
l-10 6 6 32 c3 17 12 67 19 111 8 44 20 108 28 142 l13 63 -10 27 -9 28 -45 2
c-25 0 -63 -5 -85 -12z"/>
<path d="M6190 4765 c-52 -7 -115 -18 -140 -24 -25 -6 -61 -11 -80 -11 -19 0
-42 -4 -50 -10 l-14 -9 23 -63 c13 -35 27 -76 31 -93 5 -16 13 -43 19 -60 5
-16 17 -57 25 -90 8 -33 20 -80 27 -105 19 -71 39 -161 48 -210 4 -25 13 -63
19 -85 11 -42 31 -140 57 -290 32 -181 38 -205 49 -212 6 -5 81 -7 167 -5
l156 3 44 82 c24 45 49 91 56 102 6 11 19 34 27 50 8 17 29 55 47 85 45 79
106 195 229 435 59 116 119 230 133 255 14 25 36 65 48 90 13 25 35 67 51 93
15 26 28 55 28 63 l0 16 -142 -7 c-79 -3 -153 -8 -166 -11 l-23 -5 -15 -34
c-8 -19 -14 -47 -14 -63 0 -16 -7 -51 -15 -78 -9 -27 -23 -71 -31 -99 -17 -54
-38 -112 -59 -160 -7 -16 -23 -55 -35 -85 -13 -30 -38 -88 -56 -127 -19 -40
-50 -107 -69 -148 -19 -42 -35 -79 -35 -84 0 -5 -7 -14 -15 -21 l-16 -13 -10
10 c-10 10 -22 87 -48 313 -5 41 -14 102 -20 135 -5 33 -17 105 -26 160 -9 55
-23 130 -31 166 -8 37 -14 81 -14 97 l0 31 -22 15 c-12 9 -27 15 -33 15 -5 -1
-53 -7 -105 -14z"/>
<path d="M5582 2647 l-11 -13 -1 -283 -2 -283 10 -10 c5 -5 40 -8 78 -6 l69 3
3 289 2 289 -11 13 -11 14 -58 0 -58 0 -10 -13z"/>
<path d="M6585 2651 l-50 -6 -3 -165 c-1 -91 -5 -171 -7 -179 l-6 -15 -183
183 -183 182 -64 -3 -64 -3 0 -295 0 -295 75 0 75 0 -4 178 -3 177 13 0 c7 0
95 -81 194 -180 l181 -180 62 0 c34 0 62 3 63 8 4 66 0 582 -5 590 -7 13 -10
13 -91 3z"/>
<path d="M7090 2641 l-45 -16 -47 -47 -48 -47 0 -52 0 -52 21 -33 20 -33 65
-31 c35 -16 75 -30 87 -30 13 0 54 -9 90 -21 l67 -21 10 -18 c41 -77 -175
-111 -264 -41 -6 4 -21 11 -34 14 l-23 5 -26 -39 -26 -39 10 -23 11 -22 58
-23 c33 -12 96 -26 141 -31 l81 -9 54 14 c73 19 108 37 142 73 l30 31 4 59 4
60 -21 35 -22 35 -46 22 c-25 12 -62 25 -82 29 -75 16 -150 39 -176 56 l-26
17 3 20 3 20 35 18 35 19 41 0 c23 0 71 -11 107 -24 l66 -24 20 22 c11 11 23
33 26 49 l7 27 -12 14 c-6 8 -40 24 -75 35 l-64 21 -78 -1 -78 -1 -45 -17z"/>
<path d="M7664 2639 l-14 -16 0 -40 0 -41 15 -12 14 -12 95 4 c52 1 97 0 101
-4 4 -3 7 -109 8 -235 l2 -228 69 -3 69 -3 11 11 11 11 -4 218 -3 218 13 8 c7
5 58 7 112 6 l100 -2 8 13 c11 17 11 89 0 106 l-8 13 -292 2 -292 2 -15 -16z"/>
<path d="M8523 2652 l-13 -8 -1 -285 c-1 -156 -1 -290 0 -297 l1 -13 78 3 77
3 1 285 1 285 -9 18 -9 17 -57 0 c-31 0 -63 -4 -69 -8z"/>
<path d="M8899 2638 c-11 -21 -11 -89 0 -106 l8 -13 102 2 101 3 12 -12 11
-11 -9 -213 -10 -213 10 -13 9 -13 76 3 76 3 -3 226 -4 227 14 8 c7 5 55 7
107 5 l94 -3 8 13 c11 18 11 90 1 107 l-9 13 -292 2 -293 2 -9 -17z"/>
<path d="M9739 2639 l-11 -22 4 -191 4 -191 21 -40 c43 -82 107 -127 214 -151
l73 -16 83 16 84 17 39 24 c45 29 82 75 104 130 l16 41 -2 194 -3 195 -65 6
-65 7 -12 -10 -13 -10 0 -185 0 -184 -14 -27 c-8 -15 -24 -36 -36 -47 l-22
-20 -82 0 -81 0 -27 20 c-14 11 -34 35 -43 54 l-17 35 3 179 3 178 -15 10 c-7
5 -40 9 -71 9 l-57 0 -12 -21z"/>
<path d="M10865 2650 l-280 -5 -3 -48 -3 -49 13 -15 13 -16 102 6 102 5 7 -21
c4 -12 5 -118 3 -237 l-4 -215 74 -3 74 -3 8 13 c4 7 5 110 2 229 l-6 216 14
8 c7 5 55 8 107 6 l93 -3 14 12 15 12 0 44 0 43 -22 15 c-12 9 -27 15 -33 14
-5 -2 -136 -5 -290 -8z"/>
<path d="M11650 2653 c-107 -2 -198 -7 -203 -12 -10 -10 -12 -564 -3 -580 l7
-11 223 0 224 0 9 13 10 12 -6 50 -6 50 -150 -4 -151 -3 -12 15 -13 15 3 49 3
48 133 3 133 3 -3 57 -3 57 -120 0 c-66 1 -126 2 -132 3 l-13 2 0 44 0 44 15
12 14 12 133 -3 c73 -2 139 0 146 4 l12 8 0 49 0 49 -19 11 c-11 5 -23 9 -28
8 -4 -2 -96 -4 -203 -5z"/>
<path d="M4445 2439 c-213 -10 -967 -25 -1910 -39 l-680 -10 -81 -11 c-44 -6
-87 -15 -95 -19 l-14 -9 13 -13 13 -13 557 -6 c726 -9 1616 -25 2012 -38 173
-6 383 -13 467 -15 l152 -4 16 12 16 11 -3 80 -3 80 -140 1 c-77 1 -221 -2
-320 -7z"/>
<path d="M12558 2428 c-2 -12 -1 -54 2 -93 l5 -70 205 3 c113 1 322 7 465 13
327 12 1272 30 1985 38 300 3 551 10 558 14 20 13 14 24 -20 37 l-33 12 -260
8 c-143 5 -415 9 -605 9 -190 0 -464 5 -610 11 -146 6 -510 15 -810 21 -300 7
-620 14 -712 16 l-166 5 -4 -24z"/>
</g>
</svg>
